<svg width="100" height="100" viewBox="0 0 100 100" fill="none" xmlns="http://www.w3.org/2000/svg">
<path d="M100 50C100 77.6142 77.6142 100 50 100C22.3858 100 0 77.6142 0 50C0 22.3858 22.3858 0 50 0C77.6142 0 100 22.3858 100 50ZM5 50C5 74.8528 25.1472 95 50 95C74.8528 95 95 74.8528 95 50C95 25.1472 74.8528 5 50 5C25.1472 5 5 25.1472 5 50Z" fill="#9381FF"/>
<path d="M87 50.5C87 71.2107 70.2107 88 49.5 88C28.7893 88 12 71.2107 12 50.5C12 29.7893 28.7893 13 49.5 13C70.2107 13 87 29.7893 87 50.5ZM15.75 50.5C15.75 69.1396 30.8604 84.25 49.5 84.25C68.1396 84.25 83.25 69.1396 83.25 50.5C83.25 31.8604 68.1396 16.75 49.5 16.75C30.8604 16.75 15.75 31.8604 15.75 50.5Z" fill="#9381FF"/>
<path d="M75 50C75 63.8071 63.8071 75 50 75C36.1929 75 25 63.8071 25 50C25 36.1929 36.1929 25 50 25C63.8071 25 75 36.1929 75 50ZM27.5 50C27.5 62.4264 37.5736 72.5 50 72.5C62.4264 72.5 72.5 62.4264 72.5 50C72.5 37.5736 62.4264 27.5 50 27.5C37.5736 27.5 27.5 37.5736 27.5 50Z" fill="#9381FF"/>
</svg>
