<svg width="51" height="50" viewBox="0 0 51 50" fill="none" xmlns="http://www.w3.org/2000/svg">
<g clip-path="url(#clip0_15_281)">
<mask id="mask0_15_281" style="mask-type:luminance" maskUnits="userSpaceOnUse" x="0" y="0" width="51" height="50">
<path d="M51 25C51 11.1929 39.5833 0 25.5 0C11.4167 0 0 11.1929 0 25C0 38.8071 11.4167 50 25.5 50C39.5833 50 51 38.8071 51 25Z" fill="white"/>
</mask>
<g mask="url(#mask0_15_281)">
<path d="M51 25C51 38.807 39.5831 50 25.5 50C11.4167 50 0 38.807 0 25C0 11.1929 11.4167 0 25.5 0C39.5831 0 51 11.1929 51 25ZM2.55 25C2.55 37.4265 12.8251 47.5 25.5 47.5C38.175 47.5 48.45 37.4265 48.45 25C48.45 12.5736 38.175 2.5 25.5 2.5C12.8251 2.5 2.55 12.5736 2.55 25Z" fill="#00ADB5"/>
<path d="M18.105 5.5H14.28V51.25H18.105V5.5Z" fill="#324158"/>
<path d="M32.895 25V16.25H29.835V25H32.895Z" fill="#324158"/>
<path d="M32.895 44H36.72L36.72 -1.75H32.895L32.895 44Z" fill="#324158"/>
<path d="M7.65 30.25C8.35416 30.25 8.925 29.6904 8.925 29C8.925 28.3096 8.35416 27.75 7.65 27.75C6.94584 27.75 6.375 28.3096 6.375 29C6.375 29.6904 6.94584 30.25 7.65 30.25Z" fill="#00ADB5"/>
<path d="M42.5848 21.75C43.289 21.75 43.8598 21.1904 43.8598 20.5C43.8598 19.8096 43.289 19.25 42.5848 19.25C41.8807 19.25 41.3098 19.8096 41.3098 20.5C41.3098 21.1904 41.8807 21.75 42.5848 21.75Z" fill="#00ADB5"/>
<path d="M21.165 5.5H18.105V50.25H21.165V5.5Z" fill="#00ADB5"/>
<path d="M14.28 2.5H11.22V48H14.28V2.5Z" fill="#00ADB5"/>
<path d="M21.165 2.5H12.24V5.5H21.165V2.5Z" fill="#00ADB5"/>
<path d="M29.835 25V22L-15.81 22V25L29.835 25Z" fill="#00ADB5"/>
<path d="M32.895 18.25V15.25L-13.515 15.25V18.25L32.895 18.25Z" fill="#00ADB5"/>
<path d="M18.105 31V34H64.515V31L18.105 31Z" fill="#00ADB5"/>
<path d="M21.165 24.25V27.25L66.81 27.25V24.25L21.165 24.25Z" fill="#00ADB5"/>
<path d="M18.105 24.25V33H21.165V24.25H18.105Z" fill="#00ADB5"/>
<path d="M29.835 44H32.895L32.895 -0.75H29.835L29.835 44Z" fill="#00ADB5"/>
<path d="M29.835 22V18.25L-16.83 18.25V22L29.835 22Z" fill="#324158"/>
<path d="M36.72 47H39.78L39.78 1.5H36.72L36.72 47Z" fill="#00ADB5"/>
<path d="M29.835 47H38.76V44H29.835V47Z" fill="#00ADB5"/>
<path d="M21.165 27.25V31L67.83 31V27.25L21.165 27.25Z" fill="#324158"/>
</g>
</g>
<defs>
<clipPath id="clip0_15_281">
<rect width="51" height="50" fill="white"/>
</clipPath>
</defs>
</svg>
